<mxfile host="app.diagrams.net" modified="2023-11-14T14:30:34.937Z" agent="Mozilla/5.0 (Windows NT 10.0; Win64; x64) AppleWebKit/537.36 (KHTML, like Gecko) Chrome/119.0.0.0 Safari/537.36" etag="ECP9GT-mNrmRDFHlp2A1" version="22.1.0" type="device">
  <diagram id="C5RBs43oDa-KdzZeNtuy" name="Page-1">
    <mxGraphModel dx="1633" dy="893" grid="1" gridSize="10" guides="1" tooltips="1" connect="1" arrows="1" fold="1" page="1" pageScale="1" pageWidth="3300" pageHeight="4681" math="0" shadow="0">
      <root>
        <mxCell id="WIyWlLk6GJQsqaUBKTNV-0" />
        <mxCell id="WIyWlLk6GJQsqaUBKTNV-1" parent="WIyWlLk6GJQsqaUBKTNV-0" />
        <mxCell id="zkfFHV4jXpPFQw0GAbJ--17" value="&lt;&lt;interface&gt;&gt;&#xa;Subject" style="swimlane;fontStyle=1;align=center;verticalAlign=top;childLayout=stackLayout;horizontal=1;startSize=40;horizontalStack=0;resizeParent=1;resizeLast=0;collapsible=1;marginBottom=0;rounded=0;shadow=0;strokeWidth=1;" parent="WIyWlLk6GJQsqaUBKTNV-1" vertex="1">
          <mxGeometry x="2070" y="124" width="302" height="110" as="geometry">
            <mxRectangle x="550" y="140" width="160" height="26" as="alternateBounds" />
          </mxGeometry>
        </mxCell>
        <mxCell id="zkfFHV4jXpPFQw0GAbJ--18" value="+ registrarObserver (Observer observador) : void" style="text;align=left;verticalAlign=top;spacingLeft=4;spacingRight=4;overflow=hidden;rotatable=0;points=[[0,0.5],[1,0.5]];portConstraint=eastwest;" parent="zkfFHV4jXpPFQw0GAbJ--17" vertex="1">
          <mxGeometry y="40" width="302" height="26" as="geometry" />
        </mxCell>
        <mxCell id="zkfFHV4jXpPFQw0GAbJ--19" value="+ notificarObserver(List&lt;Donut&gt; donut): void" style="text;align=left;verticalAlign=top;spacingLeft=4;spacingRight=4;overflow=hidden;rotatable=0;points=[[0,0.5],[1,0.5]];portConstraint=eastwest;rounded=0;shadow=0;html=0;" parent="zkfFHV4jXpPFQw0GAbJ--17" vertex="1">
          <mxGeometry y="66" width="302" height="26" as="geometry" />
        </mxCell>
        <mxCell id="e_zlm82QkWUUXXWrvVX0-526" value="" style="triangle;whiteSpace=wrap;html=1;rotation=-90;" vertex="1" parent="WIyWlLk6GJQsqaUBKTNV-1">
          <mxGeometry x="2211" y="234" width="20" height="20" as="geometry" />
        </mxCell>
        <mxCell id="e_zlm82QkWUUXXWrvVX0-528" value="" style="endArrow=none;dashed=1;html=1;dashPattern=1 3;strokeWidth=2;rounded=0;entryX=0;entryY=0.5;entryDx=0;entryDy=0;exitX=0.5;exitY=0;exitDx=0;exitDy=0;" edge="1" parent="WIyWlLk6GJQsqaUBKTNV-1" source="e_zlm82QkWUUXXWrvVX0-534" target="e_zlm82QkWUUXXWrvVX0-526">
          <mxGeometry width="50" height="50" relative="1" as="geometry">
            <mxPoint x="2222" y="404" as="sourcePoint" />
            <mxPoint x="2231" y="314" as="targetPoint" />
            <Array as="points" />
          </mxGeometry>
        </mxCell>
        <mxCell id="e_zlm82QkWUUXXWrvVX0-534" value="Padaria" style="swimlane;fontStyle=1;align=center;verticalAlign=top;childLayout=stackLayout;horizontal=1;startSize=26;horizontalStack=0;resizeParent=1;resizeLast=0;collapsible=1;marginBottom=0;rounded=0;shadow=0;strokeWidth=1;" vertex="1" parent="WIyWlLk6GJQsqaUBKTNV-1">
          <mxGeometry x="2070" y="394" width="300" height="216" as="geometry">
            <mxRectangle x="130" y="380" width="160" height="26" as="alternateBounds" />
          </mxGeometry>
        </mxCell>
        <mxCell id="e_zlm82QkWUUXXWrvVX0-535" value="- donuts: List&lt;Donut&gt;" style="text;align=left;verticalAlign=top;spacingLeft=4;spacingRight=4;overflow=hidden;rotatable=0;points=[[0,0.5],[1,0.5]];portConstraint=eastwest;" vertex="1" parent="e_zlm82QkWUUXXWrvVX0-534">
          <mxGeometry y="26" width="300" height="26" as="geometry" />
        </mxCell>
        <mxCell id="e_zlm82QkWUUXXWrvVX0-536" value="- observers: List&lt;Observer&gt;" style="text;align=left;verticalAlign=top;spacingLeft=4;spacingRight=4;overflow=hidden;rotatable=0;points=[[0,0.5],[1,0.5]];portConstraint=eastwest;rounded=0;shadow=0;html=0;" vertex="1" parent="e_zlm82QkWUUXXWrvVX0-534">
          <mxGeometry y="52" width="300" height="26" as="geometry" />
        </mxCell>
        <mxCell id="e_zlm82QkWUUXXWrvVX0-537" value="" style="line;html=1;strokeWidth=1;align=left;verticalAlign=middle;spacingTop=-1;spacingLeft=3;spacingRight=3;rotatable=0;labelPosition=right;points=[];portConstraint=eastwest;" vertex="1" parent="e_zlm82QkWUUXXWrvVX0-534">
          <mxGeometry y="78" width="300" height="8" as="geometry" />
        </mxCell>
        <mxCell id="e_zlm82QkWUUXXWrvVX0-538" value="+ registrarObserver (Observer observador) : void" style="text;align=left;verticalAlign=top;spacingLeft=4;spacingRight=4;overflow=hidden;rotatable=0;points=[[0,0.5],[1,0.5]];portConstraint=eastwest;fontStyle=0" vertex="1" parent="e_zlm82QkWUUXXWrvVX0-534">
          <mxGeometry y="86" width="300" height="26" as="geometry" />
        </mxCell>
        <mxCell id="e_zlm82QkWUUXXWrvVX0-539" value="+ notificarObserver(List&lt;Donut&gt; donut): void" style="text;align=left;verticalAlign=top;spacingLeft=4;spacingRight=4;overflow=hidden;rotatable=0;points=[[0,0.5],[1,0.5]];portConstraint=eastwest;" vertex="1" parent="e_zlm82QkWUUXXWrvVX0-534">
          <mxGeometry y="112" width="300" height="26" as="geometry" />
        </mxCell>
        <mxCell id="e_zlm82QkWUUXXWrvVX0-540" value="+ adicionarDonut(Donut donut): void" style="text;align=left;verticalAlign=top;spacingLeft=4;spacingRight=4;overflow=hidden;rotatable=0;points=[[0,0.5],[1,0.5]];portConstraint=eastwest;" vertex="1" parent="e_zlm82QkWUUXXWrvVX0-534">
          <mxGeometry y="138" width="300" height="26" as="geometry" />
        </mxCell>
        <mxCell id="e_zlm82QkWUUXXWrvVX0-541" value="+ retirarDonut(String saborDonut): Donut" style="text;align=left;verticalAlign=top;spacingLeft=4;spacingRight=4;overflow=hidden;rotatable=0;points=[[0,0.5],[1,0.5]];portConstraint=eastwest;" vertex="1" parent="e_zlm82QkWUUXXWrvVX0-534">
          <mxGeometry y="164" width="300" height="26" as="geometry" />
        </mxCell>
        <mxCell id="e_zlm82QkWUUXXWrvVX0-542" value="Donut" style="swimlane;fontStyle=1;align=center;verticalAlign=top;childLayout=stackLayout;horizontal=1;startSize=26;horizontalStack=0;resizeParent=1;resizeLast=0;collapsible=1;marginBottom=0;rounded=0;shadow=0;strokeWidth=1;" vertex="1" parent="WIyWlLk6GJQsqaUBKTNV-1">
          <mxGeometry x="1880" y="620" width="160" height="210" as="geometry">
            <mxRectangle x="130" y="380" width="160" height="26" as="alternateBounds" />
          </mxGeometry>
        </mxCell>
        <mxCell id="e_zlm82QkWUUXXWrvVX0-543" value="- sabor: String" style="text;align=left;verticalAlign=top;spacingLeft=4;spacingRight=4;overflow=hidden;rotatable=0;points=[[0,0.5],[1,0.5]];portConstraint=eastwest;" vertex="1" parent="e_zlm82QkWUUXXWrvVX0-542">
          <mxGeometry y="26" width="160" height="26" as="geometry" />
        </mxCell>
        <mxCell id="e_zlm82QkWUUXXWrvVX0-544" value="- preco: double" style="text;align=left;verticalAlign=top;spacingLeft=4;spacingRight=4;overflow=hidden;rotatable=0;points=[[0,0.5],[1,0.5]];portConstraint=eastwest;rounded=0;shadow=0;html=0;" vertex="1" parent="e_zlm82QkWUUXXWrvVX0-542">
          <mxGeometry y="52" width="160" height="28" as="geometry" />
        </mxCell>
        <mxCell id="e_zlm82QkWUUXXWrvVX0-548" value="- cobertura: String" style="text;align=left;verticalAlign=top;spacingLeft=4;spacingRight=4;overflow=hidden;rotatable=0;points=[[0,0.5],[1,0.5]];portConstraint=eastwest;rounded=0;shadow=0;html=0;" vertex="1" parent="e_zlm82QkWUUXXWrvVX0-542">
          <mxGeometry y="80" width="160" height="28" as="geometry" />
        </mxCell>
        <mxCell id="e_zlm82QkWUUXXWrvVX0-545" value="" style="line;html=1;strokeWidth=1;align=left;verticalAlign=middle;spacingTop=-1;spacingLeft=3;spacingRight=3;rotatable=0;labelPosition=right;points=[];portConstraint=eastwest;" vertex="1" parent="e_zlm82QkWUUXXWrvVX0-542">
          <mxGeometry y="108" width="160" height="8" as="geometry" />
        </mxCell>
        <mxCell id="e_zlm82QkWUUXXWrvVX0-546" value="+ getSabor(): String" style="text;align=left;verticalAlign=top;spacingLeft=4;spacingRight=4;overflow=hidden;rotatable=0;points=[[0,0.5],[1,0.5]];portConstraint=eastwest;fontStyle=4" vertex="1" parent="e_zlm82QkWUUXXWrvVX0-542">
          <mxGeometry y="116" width="160" height="26" as="geometry" />
        </mxCell>
        <mxCell id="e_zlm82QkWUUXXWrvVX0-547" value="+ getPreco(): double" style="text;align=left;verticalAlign=top;spacingLeft=4;spacingRight=4;overflow=hidden;rotatable=0;points=[[0,0.5],[1,0.5]];portConstraint=eastwest;" vertex="1" parent="e_zlm82QkWUUXXWrvVX0-542">
          <mxGeometry y="142" width="160" height="26" as="geometry" />
        </mxCell>
        <mxCell id="e_zlm82QkWUUXXWrvVX0-549" value="+ getCobertura(): String" style="text;align=left;verticalAlign=top;spacingLeft=4;spacingRight=4;overflow=hidden;rotatable=0;points=[[0,0.5],[1,0.5]];portConstraint=eastwest;" vertex="1" parent="e_zlm82QkWUUXXWrvVX0-542">
          <mxGeometry y="168" width="160" height="26" as="geometry" />
        </mxCell>
        <mxCell id="e_zlm82QkWUUXXWrvVX0-550" value="" style="endArrow=classic;html=1;rounded=0;exitX=0;exitY=0.5;exitDx=0;exitDy=0;entryX=0.5;entryY=0;entryDx=0;entryDy=0;" edge="1" parent="WIyWlLk6GJQsqaUBKTNV-1" source="e_zlm82QkWUUXXWrvVX0-540" target="e_zlm82QkWUUXXWrvVX0-542">
          <mxGeometry width="50" height="50" relative="1" as="geometry">
            <mxPoint x="1960" y="540" as="sourcePoint" />
            <mxPoint x="2010" y="490" as="targetPoint" />
            <Array as="points">
              <mxPoint x="1960" y="545" />
            </Array>
          </mxGeometry>
        </mxCell>
        <mxCell id="e_zlm82QkWUUXXWrvVX0-551" value="&lt;&lt;interface&gt;&gt;&#xa;Bebida&#xa;" style="swimlane;fontStyle=1;align=center;verticalAlign=top;childLayout=stackLayout;horizontal=1;startSize=40;horizontalStack=0;resizeParent=1;resizeLast=0;collapsible=1;marginBottom=0;rounded=0;shadow=0;strokeWidth=1;" vertex="1" parent="WIyWlLk6GJQsqaUBKTNV-1">
          <mxGeometry x="1600" y="50" width="160" height="140" as="geometry">
            <mxRectangle x="130" y="380" width="160" height="26" as="alternateBounds" />
          </mxGeometry>
        </mxCell>
        <mxCell id="e_zlm82QkWUUXXWrvVX0-552" value="- visualizador: View" style="text;align=left;verticalAlign=top;spacingLeft=4;spacingRight=4;overflow=hidden;rotatable=0;points=[[0,0.5],[1,0.5]];portConstraint=eastwest;" vertex="1" parent="e_zlm82QkWUUXXWrvVX0-551">
          <mxGeometry y="40" width="160" height="26" as="geometry" />
        </mxCell>
        <mxCell id="e_zlm82QkWUUXXWrvVX0-553" value="- padaria: Padaria" style="text;align=left;verticalAlign=top;spacingLeft=4;spacingRight=4;overflow=hidden;rotatable=0;points=[[0,0.5],[1,0.5]];portConstraint=eastwest;rounded=0;shadow=0;html=0;" vertex="1" parent="e_zlm82QkWUUXXWrvVX0-551">
          <mxGeometry y="66" width="160" height="28" as="geometry" />
        </mxCell>
        <mxCell id="e_zlm82QkWUUXXWrvVX0-555" value="" style="line;html=1;strokeWidth=1;align=left;verticalAlign=middle;spacingTop=-1;spacingLeft=3;spacingRight=3;rotatable=0;labelPosition=right;points=[];portConstraint=eastwest;" vertex="1" parent="e_zlm82QkWUUXXWrvVX0-551">
          <mxGeometry y="94" width="160" height="8" as="geometry" />
        </mxCell>
        <mxCell id="e_zlm82QkWUUXXWrvVX0-556" value="+ ganharBebida(): void" style="text;align=left;verticalAlign=top;spacingLeft=4;spacingRight=4;overflow=hidden;rotatable=0;points=[[0,0.5],[1,0.5]];portConstraint=eastwest;fontStyle=0" vertex="1" parent="e_zlm82QkWUUXXWrvVX0-551">
          <mxGeometry y="102" width="160" height="26" as="geometry" />
        </mxCell>
        <mxCell id="e_zlm82QkWUUXXWrvVX0-564" value="Cappuccino" style="swimlane;fontStyle=1;align=center;verticalAlign=top;childLayout=stackLayout;horizontal=1;startSize=40;horizontalStack=0;resizeParent=1;resizeLast=0;collapsible=1;marginBottom=0;rounded=0;shadow=0;strokeWidth=1;" vertex="1" parent="WIyWlLk6GJQsqaUBKTNV-1">
          <mxGeometry x="1710" y="294" width="210" height="170" as="geometry">
            <mxRectangle x="130" y="380" width="160" height="26" as="alternateBounds" />
          </mxGeometry>
        </mxCell>
        <mxCell id="e_zlm82QkWUUXXWrvVX0-565" value="- visualizador: View" style="text;align=left;verticalAlign=top;spacingLeft=4;spacingRight=4;overflow=hidden;rotatable=0;points=[[0,0.5],[1,0.5]];portConstraint=eastwest;" vertex="1" parent="e_zlm82QkWUUXXWrvVX0-564">
          <mxGeometry y="40" width="210" height="26" as="geometry" />
        </mxCell>
        <mxCell id="e_zlm82QkWUUXXWrvVX0-566" value="- padaria: Padaria" style="text;align=left;verticalAlign=top;spacingLeft=4;spacingRight=4;overflow=hidden;rotatable=0;points=[[0,0.5],[1,0.5]];portConstraint=eastwest;rounded=0;shadow=0;html=0;" vertex="1" parent="e_zlm82QkWUUXXWrvVX0-564">
          <mxGeometry y="66" width="210" height="28" as="geometry" />
        </mxCell>
        <mxCell id="e_zlm82QkWUUXXWrvVX0-567" value="" style="line;html=1;strokeWidth=1;align=left;verticalAlign=middle;spacingTop=-1;spacingLeft=3;spacingRight=3;rotatable=0;labelPosition=right;points=[];portConstraint=eastwest;" vertex="1" parent="e_zlm82QkWUUXXWrvVX0-564">
          <mxGeometry y="94" width="210" height="8" as="geometry" />
        </mxCell>
        <mxCell id="e_zlm82QkWUUXXWrvVX0-568" value="+ ganharBebida(): void" style="text;align=left;verticalAlign=top;spacingLeft=4;spacingRight=4;overflow=hidden;rotatable=0;points=[[0,0.5],[1,0.5]];portConstraint=eastwest;fontStyle=0" vertex="1" parent="e_zlm82QkWUUXXWrvVX0-564">
          <mxGeometry y="102" width="210" height="26" as="geometry" />
        </mxCell>
        <mxCell id="e_zlm82QkWUUXXWrvVX0-569" value="+ setVisualizador(View view): void" style="text;align=left;verticalAlign=top;spacingLeft=4;spacingRight=4;overflow=hidden;rotatable=0;points=[[0,0.5],[1,0.5]];portConstraint=eastwest;fontStyle=0" vertex="1" parent="e_zlm82QkWUUXXWrvVX0-564">
          <mxGeometry y="128" width="210" height="26" as="geometry" />
        </mxCell>
        <mxCell id="e_zlm82QkWUUXXWrvVX0-570" value="CafeExpresso" style="swimlane;fontStyle=1;align=center;verticalAlign=top;childLayout=stackLayout;horizontal=1;startSize=40;horizontalStack=0;resizeParent=1;resizeLast=0;collapsible=1;marginBottom=0;rounded=0;shadow=0;strokeWidth=1;" vertex="1" parent="WIyWlLk6GJQsqaUBKTNV-1">
          <mxGeometry x="1440" y="294" width="210" height="170" as="geometry">
            <mxRectangle x="130" y="380" width="160" height="26" as="alternateBounds" />
          </mxGeometry>
        </mxCell>
        <mxCell id="e_zlm82QkWUUXXWrvVX0-571" value="- visualizador: View" style="text;align=left;verticalAlign=top;spacingLeft=4;spacingRight=4;overflow=hidden;rotatable=0;points=[[0,0.5],[1,0.5]];portConstraint=eastwest;" vertex="1" parent="e_zlm82QkWUUXXWrvVX0-570">
          <mxGeometry y="40" width="210" height="26" as="geometry" />
        </mxCell>
        <mxCell id="e_zlm82QkWUUXXWrvVX0-572" value="- padaria: Padaria" style="text;align=left;verticalAlign=top;spacingLeft=4;spacingRight=4;overflow=hidden;rotatable=0;points=[[0,0.5],[1,0.5]];portConstraint=eastwest;rounded=0;shadow=0;html=0;" vertex="1" parent="e_zlm82QkWUUXXWrvVX0-570">
          <mxGeometry y="66" width="210" height="28" as="geometry" />
        </mxCell>
        <mxCell id="e_zlm82QkWUUXXWrvVX0-573" value="" style="line;html=1;strokeWidth=1;align=left;verticalAlign=middle;spacingTop=-1;spacingLeft=3;spacingRight=3;rotatable=0;labelPosition=right;points=[];portConstraint=eastwest;" vertex="1" parent="e_zlm82QkWUUXXWrvVX0-570">
          <mxGeometry y="94" width="210" height="8" as="geometry" />
        </mxCell>
        <mxCell id="e_zlm82QkWUUXXWrvVX0-575" value="+ setVisualizador(View view): void" style="text;align=left;verticalAlign=top;spacingLeft=4;spacingRight=4;overflow=hidden;rotatable=0;points=[[0,0.5],[1,0.5]];portConstraint=eastwest;fontStyle=0" vertex="1" parent="e_zlm82QkWUUXXWrvVX0-570">
          <mxGeometry y="102" width="210" height="26" as="geometry" />
        </mxCell>
        <mxCell id="e_zlm82QkWUUXXWrvVX0-574" value="+ ganharBebida(): void" style="text;align=left;verticalAlign=top;spacingLeft=4;spacingRight=4;overflow=hidden;rotatable=0;points=[[0,0.5],[1,0.5]];portConstraint=eastwest;fontStyle=0" vertex="1" parent="e_zlm82QkWUUXXWrvVX0-570">
          <mxGeometry y="128" width="210" height="26" as="geometry" />
        </mxCell>
        <mxCell id="e_zlm82QkWUUXXWrvVX0-577" value="" style="triangle;whiteSpace=wrap;html=1;rotation=-90;" vertex="1" parent="WIyWlLk6GJQsqaUBKTNV-1">
          <mxGeometry x="1650" y="190" width="20" height="20" as="geometry" />
        </mxCell>
        <mxCell id="e_zlm82QkWUUXXWrvVX0-580" value="" style="triangle;whiteSpace=wrap;html=1;rotation=-90;" vertex="1" parent="WIyWlLk6GJQsqaUBKTNV-1">
          <mxGeometry x="1680" y="190" width="20" height="20" as="geometry" />
        </mxCell>
        <mxCell id="e_zlm82QkWUUXXWrvVX0-581" value="" style="endArrow=none;dashed=1;html=1;dashPattern=1 3;strokeWidth=2;rounded=0;entryX=0;entryY=0.5;entryDx=0;entryDy=0;exitX=0.5;exitY=0;exitDx=0;exitDy=0;" edge="1" parent="WIyWlLk6GJQsqaUBKTNV-1" source="e_zlm82QkWUUXXWrvVX0-570" target="e_zlm82QkWUUXXWrvVX0-577">
          <mxGeometry width="50" height="50" relative="1" as="geometry">
            <mxPoint x="1540" y="284" as="sourcePoint" />
            <mxPoint x="1590" y="234" as="targetPoint" />
            <Array as="points">
              <mxPoint x="1560" y="240" />
            </Array>
          </mxGeometry>
        </mxCell>
        <mxCell id="e_zlm82QkWUUXXWrvVX0-582" value="" style="endArrow=none;dashed=1;html=1;dashPattern=1 3;strokeWidth=2;rounded=0;entryX=0;entryY=0.5;entryDx=0;entryDy=0;exitX=0.5;exitY=0;exitDx=0;exitDy=0;" edge="1" parent="WIyWlLk6GJQsqaUBKTNV-1" source="e_zlm82QkWUUXXWrvVX0-564" target="e_zlm82QkWUUXXWrvVX0-580">
          <mxGeometry width="50" height="50" relative="1" as="geometry">
            <mxPoint x="1770" y="284" as="sourcePoint" />
            <mxPoint x="1820" y="234" as="targetPoint" />
            <Array as="points">
              <mxPoint x="1770" y="240" />
            </Array>
          </mxGeometry>
        </mxCell>
        <mxCell id="e_zlm82QkWUUXXWrvVX0-583" value="View" style="swimlane;fontStyle=1;align=center;verticalAlign=top;childLayout=stackLayout;horizontal=1;startSize=40;horizontalStack=0;resizeParent=1;resizeLast=0;collapsible=1;marginBottom=0;rounded=0;shadow=0;strokeWidth=1;" vertex="1" parent="WIyWlLk6GJQsqaUBKTNV-1">
          <mxGeometry x="1130" y="400" width="230" height="170" as="geometry">
            <mxRectangle x="130" y="380" width="160" height="26" as="alternateBounds" />
          </mxGeometry>
        </mxCell>
        <mxCell id="e_zlm82QkWUUXXWrvVX0-584" value="- bebidaGratis: Bebida" style="text;align=left;verticalAlign=top;spacingLeft=4;spacingRight=4;overflow=hidden;rotatable=0;points=[[0,0.5],[1,0.5]];portConstraint=eastwest;" vertex="1" parent="e_zlm82QkWUUXXWrvVX0-583">
          <mxGeometry y="40" width="230" height="26" as="geometry" />
        </mxCell>
        <mxCell id="e_zlm82QkWUUXXWrvVX0-585" value="- donuts: List&lt;Donut&gt;" style="text;align=left;verticalAlign=top;spacingLeft=4;spacingRight=4;overflow=hidden;rotatable=0;points=[[0,0.5],[1,0.5]];portConstraint=eastwest;rounded=0;shadow=0;html=0;" vertex="1" parent="e_zlm82QkWUUXXWrvVX0-583">
          <mxGeometry y="66" width="230" height="28" as="geometry" />
        </mxCell>
        <mxCell id="e_zlm82QkWUUXXWrvVX0-586" value="" style="line;html=1;strokeWidth=1;align=left;verticalAlign=middle;spacingTop=-1;spacingLeft=3;spacingRight=3;rotatable=0;labelPosition=right;points=[];portConstraint=eastwest;" vertex="1" parent="e_zlm82QkWUUXXWrvVX0-583">
          <mxGeometry y="94" width="230" height="8" as="geometry" />
        </mxCell>
        <mxCell id="e_zlm82QkWUUXXWrvVX0-587" value="+ setBebidaGratis(Bebida bebida): void" style="text;align=left;verticalAlign=top;spacingLeft=4;spacingRight=4;overflow=hidden;rotatable=0;points=[[0,0.5],[1,0.5]];portConstraint=eastwest;fontStyle=0" vertex="1" parent="e_zlm82QkWUUXXWrvVX0-583">
          <mxGeometry y="102" width="230" height="26" as="geometry" />
        </mxCell>
        <mxCell id="e_zlm82QkWUUXXWrvVX0-588" value="+ atualizar(List&lt;Donut&gt; donut): void" style="text;align=left;verticalAlign=top;spacingLeft=4;spacingRight=4;overflow=hidden;rotatable=0;points=[[0,0.5],[1,0.5]];portConstraint=eastwest;fontStyle=0" vertex="1" parent="e_zlm82QkWUUXXWrvVX0-583">
          <mxGeometry y="128" width="230" height="26" as="geometry" />
        </mxCell>
        <mxCell id="e_zlm82QkWUUXXWrvVX0-593" value="" style="endArrow=none;html=1;rounded=0;entryX=0.008;entryY=1.198;entryDx=0;entryDy=0;entryPerimeter=0;" edge="1" parent="WIyWlLk6GJQsqaUBKTNV-1" target="e_zlm82QkWUUXXWrvVX0-538">
          <mxGeometry width="50" height="50" relative="1" as="geometry">
            <mxPoint x="1360" y="511" as="sourcePoint" />
            <mxPoint x="1650" y="490" as="targetPoint" />
          </mxGeometry>
        </mxCell>
        <mxCell id="e_zlm82QkWUUXXWrvVX0-595" value="" style="endArrow=none;html=1;rounded=0;" edge="1" parent="WIyWlLk6GJQsqaUBKTNV-1">
          <mxGeometry width="50" height="50" relative="1" as="geometry">
            <mxPoint x="1360" y="510" as="sourcePoint" />
            <mxPoint x="1390" y="490" as="targetPoint" />
          </mxGeometry>
        </mxCell>
        <mxCell id="e_zlm82QkWUUXXWrvVX0-596" value="" style="endArrow=none;html=1;rounded=0;" edge="1" parent="WIyWlLk6GJQsqaUBKTNV-1">
          <mxGeometry width="50" height="50" relative="1" as="geometry">
            <mxPoint x="1360" y="510" as="sourcePoint" />
            <mxPoint x="1390" y="530" as="targetPoint" />
          </mxGeometry>
        </mxCell>
        <mxCell id="e_zlm82QkWUUXXWrvVX0-597" value="&lt;&lt;interface&gt;&gt;&#xa;Observer" style="swimlane;fontStyle=1;align=center;verticalAlign=top;childLayout=stackLayout;horizontal=1;startSize=40;horizontalStack=0;resizeParent=1;resizeLast=0;collapsible=1;marginBottom=0;rounded=0;shadow=0;strokeWidth=1;" vertex="1" parent="WIyWlLk6GJQsqaUBKTNV-1">
          <mxGeometry x="1094" y="80" width="302" height="80" as="geometry">
            <mxRectangle x="550" y="140" width="160" height="26" as="alternateBounds" />
          </mxGeometry>
        </mxCell>
        <mxCell id="e_zlm82QkWUUXXWrvVX0-598" value="+ atualizar(List&lt;Donut&gt; donut): void" style="text;align=left;verticalAlign=top;spacingLeft=4;spacingRight=4;overflow=hidden;rotatable=0;points=[[0,0.5],[1,0.5]];portConstraint=eastwest;" vertex="1" parent="e_zlm82QkWUUXXWrvVX0-597">
          <mxGeometry y="40" width="302" height="26" as="geometry" />
        </mxCell>
        <mxCell id="e_zlm82QkWUUXXWrvVX0-600" value="" style="triangle;whiteSpace=wrap;html=1;rotation=-90;" vertex="1" parent="WIyWlLk6GJQsqaUBKTNV-1">
          <mxGeometry x="1235" y="160" width="20" height="20" as="geometry" />
        </mxCell>
        <mxCell id="e_zlm82QkWUUXXWrvVX0-601" value="" style="endArrow=none;dashed=1;html=1;dashPattern=1 3;strokeWidth=2;rounded=0;entryX=0;entryY=0.5;entryDx=0;entryDy=0;exitX=0.5;exitY=0;exitDx=0;exitDy=0;" edge="1" parent="WIyWlLk6GJQsqaUBKTNV-1" source="e_zlm82QkWUUXXWrvVX0-583" target="e_zlm82QkWUUXXWrvVX0-600">
          <mxGeometry width="50" height="50" relative="1" as="geometry">
            <mxPoint x="1210" y="310" as="sourcePoint" />
            <mxPoint x="1260" y="260" as="targetPoint" />
          </mxGeometry>
        </mxCell>
      </root>
    </mxGraphModel>
  </diagram>
</mxfile>
